# xmcd
#
# Track frame offsets:
#	150
#	13948
#	39554
#	55331
#	72356
#	90501
#	108253
#	123467
#	139735
#	157354
#	175306
#	191198
#	217435
#	232493
#	278247
#	314457
#
# Disc length: 4660 seconds
#
# Revision: 1
# Processed by: cddbd v1.5.1PL0 Copyright (c) Steve Scherf et al.
# Submitted via: audiograbber 1.83.01
#
DISCID=05123210
DTITLE=Various Artist - Зима 2003 Dance Mission.
DYEAR=1900
DGENRE=
TTITLE0=E-Type. - Banca Banca.
TTITLE1=Drunkenmunky vs. Eminem. - Without E. (Sjoost Bootleg Mix)
TTITLE2=Las Ketchup. - Aseraje. (Hippy)
TTITLE3=Brainstorm. - Online. (BTH Radio Rmx)
TTITLE4=In-Grid. - Tu Es Foutu. (Dj Wint Progressive Mix)
TTITLE5=S Club Juniors. - New Direction.
TTITLE6=Marta. - Yeah Yeah.
TTITLE7=Cover Team. - Tu Es Foutu.
TTITLE8=Everything But The Girl. - Missing. (Todd Terry Rmx)
TTITLE9=ATB. - Another Dimension.
TTITLE10=Madhouse. - Holiday.
TTITLE11=Brooklyn Bounche. - All Hands Up!
TTITLE12=Energy 52. - Cafe Del Mar. (Cafe Del Marco V)
TTITLE13=Madonna. - Die Another Day. (Dirty Vegas Main Mix)
TTITLE14=Sophie Ellis Bextor. - Murder On The Dancefloor. (Tribal Murder Extend
TTITLE14=ed Club Mix)
TTITLE15=Lisa Pin - Up Turn Up The Sound. (Equinox Trancefloor Rmx)
EXTD=
EXTT0=
EXTT1=
EXTT2=
EXTT3=
EXTT4=
EXTT5=
EXTT6=
EXTT7=
EXTT8=
EXTT9=
EXTT10=
EXTT11=
EXTT12=
EXTT13=
EXTT14=
EXTT15=
PLAYORDER=
